# xmcd
#
# Track frame offsets: 
#        150
#        11446
#        20764
#        31508
#        43571
#        54394
#        64311
#        75706
#        84894
#        96588
#        106909
#        117199
#        128194
#        139430
#        149023
#        158842
#        171695
#        182322
#        194188
#        204787
#        213805
#        221692
#        234316
#        245170
#
# Disc length: 3435 seconds
#
# Revision: 1
# Processed by: cddbd v1.5.2PL0 Copyright (c) Steve Scherf et al.
# Submitted via: ExactAudioCopy v1.1
#
DISCID=590d6918
DTITLE=Dee Dee Sharp - The Best Of Dee Dee Sharp
DYEAR=2005
DGENRE=R&B
TTITLE0=Mashed Potato Time (mono)
TTITLE1=Gravy (For My Mashed Potatoes) (mono single version)
TTITLE2=Baby Cakes (mono)
TTITLE3=You Are My Sunshine (mono)
TTITLE4=Ride! (mono)
TTITLE5=Do The Bird (mono)
TTITLE6=Slow Twistin' (Dee Dee Lp version) (mono)
TTITLE7=You Ain't Nothin' But A Nothin' (mono)
TTITLE8=Just To Hold My Hand (mono)
TTITLE9=Rock Me In The Cradle Of Love (mono)
TTITLE10=Wild! (mono)
TTITLE11=Why Doncha Ask Me (mono single version)
TTITLE12=Never Pick A Pretty Boy (mono)
TTITLE13=Willyam, Willyam (mono)
TTITLE14=Where Did I Go (mono)
TTITLE15=Deep Dark Secret (mono)
TTITLE16=There Ain't Nothin' I Wouldn't Do For You (mono)
TTITLE17=(That's What) My Mama Said (mono)
TTITLE18=Let's Twine (mono)
TTITLE19=Standing In The Need Of Love (mono)
TTITLE20=It's A Funny Situation (mono)
TTITLE21=I Really Love You (mono)
TTITLE22=(It's Wonderful) The Love I Feel For You (mono)
TTITLE23=To Know Him Is To Love Him (mono)
EXTD=
EXTT0=
EXTT1=
EXTT2=
EXTT3=
EXTT4=
EXTT5=
EXTT6=
EXTT7=
EXTT8=
EXTT9=
EXTT10=
EXTT11=
EXTT12=
EXTT13=
EXTT14=
EXTT15=
EXTT16=
EXTT17=
EXTT18=
EXTT19=
EXTT20=
EXTT21=
EXTT22=
EXTT23=
PLAYORDER=
